<?xml version="1.0" encoding="UTF-8" standalone="no"?>
<!-- Created with Inkscape (http://www.inkscape.org/) -->

<svg
   width="210mm"
   height="297mm"
   viewBox="0 0 210 297"
   version="1.1"
   id="svg1"
   inkscape:version="1.3.2 (091e20e, 2023-11-25, custom)"
   sodipodi:docname="protein_a.svg"
   xmlns:inkscape="http://www.inkscape.org/namespaces/inkscape"
   xmlns:sodipodi="http://sodipodi.sourceforge.net/DTD/sodipodi-0.dtd"
   xmlns="http://www.w3.org/2000/svg"
   xmlns:svg="http://www.w3.org/2000/svg">
  <sodipodi:namedview
     id="namedview1"
     pagecolor="#505050"
     bordercolor="#ffffff"
     borderopacity="1"
     inkscape:showpageshadow="0"
     inkscape:pageopacity="0"
     inkscape:pagecheckerboard="1"
     inkscape:deskcolor="#505050"
     inkscape:document-units="mm"
     inkscape:zoom="0.70710678"
     inkscape:cx="384.66609"
     inkscape:cy="386.0803"
     inkscape:window-width="1278"
     inkscape:window-height="1000"
     inkscape:window-x="1273"
     inkscape:window-y="0"
     inkscape:window-maximized="0"
     inkscape:current-layer="layer1" />
  <defs
     id="defs1">
    <inkscape:path-effect
       effect="spiro"
       id="path-effect19"
       is_visible="true"
       lpeversion="1" />
    <inkscape:path-effect
       effect="spiro"
       id="path-effect18"
       is_visible="true"
       lpeversion="1" />
    <inkscape:path-effect
       effect="spiro"
       id="path-effect17"
       is_visible="true"
       lpeversion="1" />
    <inkscape:path-effect
       effect="spiro"
       id="path-effect16"
       is_visible="true"
       lpeversion="1" />
    <inkscape:path-effect
       effect="spiro"
       id="path-effect15"
       is_visible="true"
       lpeversion="1" />
    <inkscape:path-effect
       effect="spiro"
       id="path-effect14"
       is_visible="true"
       lpeversion="1" />
    <inkscape:path-effect
       effect="spiro"
       id="path-effect13"
       is_visible="true"
       lpeversion="1" />
    <inkscape:path-effect
       effect="spiro"
       id="path-effect12"
       is_visible="true"
       lpeversion="1" />
    <inkscape:path-effect
       effect="spiro"
       id="path-effect11"
       is_visible="true"
       lpeversion="1" />
    <inkscape:path-effect
       effect="spiro"
       id="path-effect10"
       is_visible="true"
       lpeversion="1" />
    <inkscape:path-effect
       effect="spiro"
       id="path-effect9"
       is_visible="true"
       lpeversion="1" />
    <inkscape:path-effect
       effect="spiro"
       id="path-effect8"
       is_visible="true"
       lpeversion="1" />
    <inkscape:path-effect
       effect="spiro"
       id="path-effect6"
       is_visible="true"
       lpeversion="1" />
    <inkscape:path-effect
       effect="fillet_chamfer"
       id="path-effect1"
       is_visible="true"
       lpeversion="1"
       nodesatellites_param="F,0,0,1,0,4.2335323,0,1 @ F,0,0,1,0,0,0,1 @ F,0,0,1,0,0,0,1 @ F,0,0,1,0,4.616583,0,1"
       radius="0"
       unit="px"
       method="auto"
       mode="F"
       chamfer_steps="1"
       flexible="false"
       use_knot_distance="true"
       apply_no_radius="true"
       apply_with_radius="true"
       only_selected="false"
       hide_knots="false" />
    <inkscape:path-effect
       effect="fillet_chamfer"
       id="path-effect7"
       is_visible="true"
       lpeversion="1"
       nodesatellites_param="F,0,0,1,0,7.373741,0,1 @ F,0,0,1,0,8.935282,0,1 @ F,0,0,1,0,5.9868374,0,1 @ F,0,0,1,0,11.786586,0,1 @ F,0,0,1,0,15.341271,0,1 @ F,0,0,1,0,0,0,1 @ F,0,0,1,0,0,0,1 @ F,0,0,1,0,9.5788964,0,1"
       radius="0"
       unit="px"
       method="auto"
       mode="F"
       chamfer_steps="1"
       flexible="false"
       use_knot_distance="true"
       apply_no_radius="true"
       apply_with_radius="true"
       only_selected="false"
       hide_knots="false" />
    <inkscape:path-effect
       effect="fillet_chamfer"
       id="path-effect5"
       is_visible="true"
       lpeversion="1"
       nodesatellites_param="F,0,0,1,0,11.632404,0,1 @ F,0,0,1,0,13.129113,0,1 @ F,0,0,1,0,12.006581,0,1 @ F,0,0,1,0,12.754936,0,1"
       radius="0"
       unit="px"
       method="auto"
       mode="F"
       chamfer_steps="1"
       flexible="false"
       use_knot_distance="true"
       apply_no_radius="true"
       apply_with_radius="true"
       only_selected="false"
       hide_knots="false" />
    <inkscape:path-effect
       effect="fillet_chamfer"
       id="path-effect4"
       is_visible="true"
       lpeversion="1"
       nodesatellites_param="F,0,0,1,0,0,0,1 @ F,0,0,1,0,0,0,1 @ F,0,0,1,0,0,0,1 @ F,0,0,1,0,0,0,1"
       radius="0"
       unit="px"
       method="auto"
       mode="F"
       chamfer_steps="1"
       flexible="false"
       use_knot_distance="true"
       apply_no_radius="true"
       apply_with_radius="true"
       only_selected="false"
       hide_knots="false" />
    <inkscape:path-effect
       effect="fillet_chamfer"
       id="path-effect3"
       is_visible="true"
       lpeversion="1"
       nodesatellites_param="F,0,0,1,0,0,0,1 @ F,0,0,1,0,0,0,1 @ F,0,0,1,0,0,0,1 @ F,0,0,1,0,0,0,1"
       radius="0"
       unit="px"
       method="auto"
       mode="F"
       chamfer_steps="1"
       flexible="false"
       use_knot_distance="true"
       apply_no_radius="true"
       apply_with_radius="true"
       only_selected="false"
       hide_knots="false" />
    <inkscape:path-effect
       effect="fillet_chamfer"
       id="path-effect2"
       is_visible="true"
       lpeversion="1"
       nodesatellites_param="F,0,0,1,0,0,0,1 @ F,0,0,1,0,0,0,1 @ F,0,0,1,0,17.607609,0,1 @ F,0,0,1,0,16.439114,0,1"
       radius="0"
       unit="px"
       method="auto"
       mode="F"
       chamfer_steps="1"
       flexible="false"
       use_knot_distance="true"
       apply_no_radius="true"
       apply_with_radius="true"
       only_selected="false"
       hide_knots="false" />
  </defs>
  <g
     inkscape:label="Calque 1"
     inkscape:groupmode="layer"
     id="layer1">
    <path
       style="fill:#ffffff;fill-opacity:1;stroke-width:5.92785;stroke-linejoin:bevel"
       id="rect4"
       width="150"
       height="150"
       x="28.811649"
       y="69.971153"
       inkscape:path-effect="#path-effect5"
       sodipodi:type="rect"
       d="M 40.444053,69.971153 H 165.68254 a 13.129113,13.129113 45 0 1 13.12911,13.129113 l 0,124.864304 a 12.006581,12.006581 135 0 1 -12.00658,12.00658 H 41.566585 A 12.754936,12.754936 45 0 1 28.811649,207.21622 V 81.603557 A 11.632404,11.632404 135 0 1 40.444053,69.971153 Z"
       inkscape:export-filename="basic.png"
       inkscape:export-xdpi="86.698669"
       inkscape:export-ydpi="86.698669" />
    <path
       id="rect1-3-6-7-5"
       style="fill:#43893b;fill-opacity:1;stroke-width:0.715853;stroke-linejoin:bevel"
       d="m 101.62695,76.71875 c -1.3084,0.328591 -2.746436,0.393523 -3.922852,1.094378 -1.044879,0.793847 -0.894179,2.256124 -0.493832,3.348857 0.01308,0.353183 0.548529,1.615076 0.203796,1.345827 -0.76137,-0.797746 -2.011097,-1.298716 -3.019531,-0.634765 -0.972642,0.640051 -1.673953,1.602183 -2.501953,2.408203 -0.834165,0.867361 -0.769803,2.310536 0.09822,3.12927 0.92883,0.909968 1.910166,1.767886 2.839276,2.681277 -9.211588,16.445963 -18.423177,32.891923 -27.634766,49.337893 -3.077784,-1.95055 -6.101327,-3.99733 -9.227947,-5.86442 -1.340915,-0.54119 -2.714978,0.50311 -3.207599,1.72184 -0.748628,1.01452 -1.818016,2.28526 -1.171875,3.61719 0.646291,1.20088 2.067382,1.60801 3.088672,2.41156 2.318099,1.49237 4.636198,2.98474 6.954296,4.47711 -0.379557,0.67773 -0.759114,1.35547 -1.138671,2.0332 -4.223361,0.75119 -8.476879,1.36986 -12.67912,2.21598 -1.34954,0.50076 -1.666503,2.19391 -1.211506,3.42269 0.12922,1.25576 0.199547,2.91621 1.572266,3.47071 1.288834,0.45371 2.615023,-0.2054 3.911717,-0.30214 1.279428,-0.21764 2.558855,-0.43529 3.838283,-0.65294 -5.697266,10.17252 -11.394531,20.34505 -17.091797,30.51758 -3.760611,0.6724 -7.550947,1.21452 -11.290447,1.9816 -1.356757,0.4993 -1.667649,2.19949 -1.211506,3.43051 0.130782,1.1957 0.17289,2.83246 1.494141,3.42382 1.268542,0.53602 2.598925,-0.1612 3.888358,-0.24721 0.84424,-0.1427 1.70098,-0.29185 2.537423,-0.43052 -0.808889,1.23022 -1.317002,2.84286 -0.583984,4.23242 0.888145,1.67574 2.866209,2.21101 4.355531,3.19619 0.480199,0.34555 1.350336,0.46331 1.109689,1.22998 0.04702,1.57937 -0.128711,3.18851 0.134389,4.74766 0.430572,1.22832 1.890445,1.47094 3.025391,1.32617 1.131369,0.11015 2.648698,0.0292 3.103024,-1.23247 0.406613,-1.32223 0.06974,-2.72567 0.187991,-4.08393 0.04487,-0.97252 -0.148663,-2.01125 0.128983,-2.94012 6.457657,-11.52973 12.915313,-23.05946 19.37297,-34.58918 18.672526,-0.0964 37.345056,-0.19271 56.017576,-0.28906 1.01533,3.38957 1.89581,6.82661 3.01877,10.17949 0.71728,1.37141 2.5707,1.65828 3.8752,1.00874 1.34613,-0.47826 2.96547,-0.52343 4.03132,-1.56812 0.89669,-0.9887 0.73173,-2.45528 0.24103,-3.59033 -0.58538,-2.02621 -1.17077,-4.05241 -1.75616,-6.07861 3.12239,-0.0156 6.24479,-0.0312 9.36719,-0.0469 2.83333,5.13737 5.66666,10.27474 8.5,15.41211 -0.90836,1.28541 -0.028,2.83174 0.1966,4.18971 0.17528,1.21031 1.28704,2.28303 2.55676,2.04861 0.62108,-0.35203 0.82282,0.15023 1.04842,0.65722 1.06607,1.93326 2.13214,3.86652 3.19822,5.79977 -1.38288,3.12996 -2.86643,6.22276 -4.16232,9.38669 -0.33076,1.38434 0.86945,2.59668 2.1355,2.90414 1.11262,0.57447 2.47164,1.45293 3.71627,0.68574 1.14998,-0.75845 1.31622,-2.24925 1.96318,-3.36935 0.2486,-0.55201 0.4972,-1.10403 0.7458,-1.65604 0.34537,0.7095 -0.006,1.55305 0.0497,2.29529 -0.0304,1.33901 -0.30204,2.71076 -0.0532,4.03395 0.4223,1.26838 1.889,1.67314 3.09338,1.56724 1.22155,0.15942 2.8051,0.42069 3.60794,-0.77932 0.75092,-1.111 0.35957,-2.51901 0.59323,-3.76365 -0.16193,-0.61725 0.13501,-1.05893 0.7298,-1.24734 1.35429,-0.84181 2.88618,-1.46441 4.05191,-2.56896 0.74606,-0.84558 1.02071,-2.0536 0.80227,-3.15049 1.04392,0.89065 2.89451,0.85097 3.58926,-0.45405 0.66752,-0.98479 1.47296,-1.93544 1.86571,-3.06593 0.26345,-1.27291 -0.77349,-2.32725 -1.83619,-2.8259 -3.57931,-2.30202 -7.15861,-4.60405 -10.73792,-6.90608 -0.12115,-0.46088 -1.10888,-1.28937 -0.16366,-1.2979 1.43607,-0.42079 3.00032,-0.66072 4.37655,-1.30171 1.1509,-0.76826 1.09575,-2.35592 0.60547,-3.49609 -0.22434,-1.21108 -0.47598,-2.7914 -1.86341,-3.18091 -1.32323,-0.35481 -2.57577,0.45594 -3.85899,0.65161 -1.12053,0.29818 -2.24105,0.59636 -3.36158,0.89453 -0.40433,-0.5942 -0.73995,-1.15903 0.24795,-1.15791 3.16167,-0.85813 6.35234,-1.632 9.48622,-2.57782 1.30136,-0.62177 1.46935,-2.34115 0.90059,-3.52598 -0.24971,-1.23868 -0.46307,-2.89061 -1.88672,-3.31055 -1.3296,-0.33775 -2.57949,0.44745 -3.86693,0.65656 -3.0092,0.79938 -6.0184,1.59875 -9.0276,2.39813 -6.18164,-11.20769 -12.36328,-22.41537 -18.54492,-33.62305 2.36437,-0.66797 4.78971,-1.16157 7.1041,-1.98178 1.26467,-0.70307 1.27093,-2.39651 0.74471,-3.57348 -0.22542,-1.21777 -0.4828,-2.80797 -1.88201,-3.19083 -1.31958,-0.34087 -2.56276,0.45879 -3.84157,0.65613 -1.91479,0.50916 -3.82958,1.01831 -5.74437,1.52746 -0.18652,-0.48522 -0.79234,-1.14902 -0.73347,-1.52973 3.85036,-1.0516 7.73762,-1.98953 11.55944,-3.13179 1.29889,-0.62246 1.45722,-2.33244 0.89864,-3.51622 -0.25188,-1.2411 -0.46306,-2.89886 -1.89062,-3.32031 -1.33066,-0.32725 -2.57806,0.44855 -3.86499,0.66044 -3.48671,0.9159 -6.99707,1.87875 -10.469,2.76534 0.42293,-0.59081 1.08571,-1.04745 1.57391,-1.61461 1.47685,-1.5142 3.09456,-2.91771 4.42804,-4.55726 0.66797,-1.25387 -0.1833,-2.65614 -1.20703,-3.40821 -0.78986,-0.93673 -1.80427,-2.16663 -3.19087,-1.81016 -1.32099,0.35491 -2.00029,1.67867 -3.01183,2.49114 -0.74298,0.73916 -1.48596,1.47831 -2.22894,2.21746 -4.7181,-8.55403 -9.4362,-17.10807 -14.15429,-25.662107 0.89962,-0.991881 2.19004,-1.777402 2.60351,-3.109375 0.27721,-1.284366 -0.75658,-2.27395 -1.60824,-3.060909 -0.72906,-0.912442 -1.77995,-1.94508 -3.06363,-1.57581 -0.64357,0.163288 -1.12982,0.649014 -1.56641,1.121094 -0.8303,-1.603848 -2.89915,-2.49362 -4.57976,-1.692405 -0.46759,0.105131 -0.89069,0.637538 -1.33235,0.569358 -0.60596,-0.282167 -0.44247,-1.049987 -0.67187,-1.574218 -0.25763,-1.271941 -0.50187,-2.976727 -1.97266,-3.38086 -0.27366,-0.07912 -0.56395,-0.115723 -0.84766,-0.08008 z m 3.09375,22.675781 c 1.14203,0.945489 1.55456,2.428559 2.34044,3.637329 4.11042,7.45775 8.23532,14.90745 12.32167,22.3783 -0.12243,1.42221 1.41335,2.09071 1.83972,3.30335 4.47335,8.10787 8.9467,16.21573 13.42005,24.3236 -20.05664,0.10417 -40.113283,0.20833 -60.169924,0.3125 2.735677,-4.88412 5.471354,-9.76823 8.207032,-14.65234 2.112078,1.58471 4.116719,3.32957 6.314671,4.78915 1.323729,0.58634 2.676601,-0.43389 3.294703,-1.56454 0.805948,-0.90368 1.890374,-2.001 1.445313,-3.33008 -0.480177,-1.32976 -1.939486,-1.83939 -2.89201,-2.76234 -0.652533,-0.50631 -1.305066,-1.01261 -1.957599,-1.51891 4.04259,1.22136 8.062706,2.5397 12.128814,3.67001 1.406,0.1601 2.46006,-1.16649 2.61169,-2.45373 0.43508,-1.205 1.16958,-2.73456 0.17161,-3.86863 -0.89789,-0.95035 -2.30404,-0.96601 -3.45313,-1.43554 1.21565,-0.69149 1.22298,-2.20417 1.73892,-3.34927 0.50879,-1.09651 0.27732,-2.60476 -0.88434,-3.17886 -1.1014,-0.52632 -2.332463,-0.70748 -3.47426,-1.13728 -1.707503,-0.5256 -3.415005,-1.05119 -5.122508,-1.57678 4.034549,-7.19944 8.063548,-14.40234 12.101558,-21.599611 z"
       inkscape:export-filename="..\assets\protein_a.png"
       inkscape:export-xdpi="86.698669"
       inkscape:export-ydpi="86.698669" />
    <path
       id="rect1-3-6-7"
       style="fill:#62c354;stroke-width:0.715857;stroke-linejoin:bevel;fill-opacity:1"
       d="M 77.319442 -101.71363 C 77.321572 -101.63404 77.331247 -101.55382 77.349816 -101.4733 L 77.97407 -98.76687 C 78.122618 -98.122679 78.758284 -97.730167 79.39905 -97.886921 L 84.132325 -99.044854 L 84.818505 -98.660717 L 82.535418 -96.231119 C 82.084287 -95.751003 82.102766 -94.992747 82.577052 -94.53091 L 84.569874 -92.590494 C 85.04416 -92.128658 85.7888 -92.14331 86.239931 -92.623426 L 89.466927 -96.057699 L 140.61819 -67.418276 L 134.40296 -57.705197 C 134.04781 -57.15014 134.20511 -56.407879 134.75555 -56.04033 L 137.06829 -54.495951 C 137.61873 -54.128402 138.34741 -54.279272 138.70255 -54.834329 L 145.13611 -64.888771 L 148.48881 -63.011574 L 150.69791 -50.314411 C 150.8112 -49.663257 151.42794 -49.218525 152.08044 -49.317198 L 154.82185 -49.731453 C 155.47435 -49.830127 155.90821 -50.43428 155.79491 -51.085434 L 154.28432 -59.766601 L 187.24481 -41.311982 L 189.21296 -30.002069 C 189.32626 -29.350916 189.94247 -28.905667 190.59498 -29.00434 L 193.33638 -29.419112 C 193.98889 -29.517786 194.42326 -30.121422 194.30997 -30.772575 L 193.04083 -38.067009 L 195.85133 -36.493187 C 197.08695 -35.801358 198.63975 -36.233174 199.33321 -37.461184 L 201.88273 -41.976188 L 207.11342 -41.976058 C 207.66767 -41.976058 208.11419 -42.422297 208.11419 -42.976541 L 208.11408 -45.305098 C 208.11408 -45.859342 207.66767 -46.305541 207.11342 -46.305541 L 200.87504 -46.305659 L 165.18122 -66.290612 L 164.66574 -123.72267 L 175.02837 -126.71305 C 175.88064 -126.959 176.36815 -127.84498 176.12149 -128.69943 L 175.0851 -132.28944 C 174.83844 -133.14388 173.95345 -133.63346 173.10118 -133.38751 L 164.60099 -130.93424 L 164.49856 -142.32753 L 181.17146 -151.52565 C 181.41226 -151.00696 181.9939 -150.71281 182.56567 -150.85347 L 185.25704 -151.51531 C 185.8976 -151.67289 186.27459 -152.31416 186.10266 -152.95262 L 185.79915 -154.07896 L 193.56062 -158.36131 L 202.96797 -154.12307 C 203.57117 -153.85131 204.28156 -154.11303 204.56098 -154.71005 L 205.7353 -157.21829 C 206.01472 -157.81531 205.75374 -158.515 205.15054 -158.78676 L 199.19543 -161.47016 L 201.60519 -162.79943 L 207.0448 -162.49058 C 207.70432 -162.45314 208.2721 -162.95313 208.31796 -163.61171 L 208.51048 -166.37881 C 208.55634 -167.03739 208.06242 -167.59772 207.4029 -167.63516 L 203.40797 -167.86194 L 200.91002 -172.16553 C 200.19639 -173.39496 198.62404 -173.83379 197.38451 -173.14992 L 194.89637 -171.77732 L 197.25938 -175.47034 C 197.61453 -176.0254 197.45774 -176.76817 196.9073 -177.13572 L 194.59456 -178.6801 C 194.04412 -179.04765 193.31493 -178.89678 192.95978 -178.34172 L 185.4115 -166.54432 L 182.82641 -165.11807 L 181.36127 -170.55906 C 181.18934 -171.19751 180.53555 -171.58475 179.89499 -171.42716 L 177.20363 -170.76533 C 176.56307 -170.60774 176.18556 -169.96647 176.35749 -169.32802 L 178.18118 -162.55547 L 175.32485 -160.97912 L 172.33324 -172.08853 C 172.1613 -172.72699 171.50752 -173.11423 170.86696 -172.95664 L 168.1756 -172.29429 C 167.53504 -172.1367 167.15804 -171.49595 167.32997 -170.85749 L 170.68014 -158.41653 L 135.22367 -138.85453 L 133.11639 -146.6795 C 132.94446 -147.31795 132.29016 -147.70467 131.6496 -147.54709 L 128.95875 -146.88525 C 128.31819 -146.72766 127.94068 -146.08691 128.11261 -145.44846 L 130.57845 -136.29193 L 127.17085 -134.41176 L 123.80391 -146.91424 C 123.63198 -147.55269 122.97768 -147.93993 122.33712 -147.78235 L 119.64575 -147.12051 C 119.0052 -146.96292 118.6282 -146.32165 118.80013 -145.6832 L 122.52562 -131.84916 L 121.04666 -131.03313 L 114.9368 -137.15992 C 114.46934 -137.62867 113.71069 -137.63868 113.23605 -137.1818 L 111.24195 -135.26196 C 110.7673 -134.80508 110.76175 -134.06001 111.22921 -133.59126 L 116.35915 -128.44681 L 88.839483 -113.26361 L 86.310051 -115.79989 C 85.842591 -116.26863 85.084463 -116.27812 84.609814 -115.82125 L 82.615718 -113.90141 C 82.141069 -113.44453 82.135003 -112.69946 82.602462 -112.23071 L 84.151455 -110.67728 L 82.784392 -109.92315 C 81.544863 -109.23928 81.121218 -107.69896 81.834852 -106.46952 L 82.580798 -105.18511 L 81.791867 -103.78806 L 78.238297 -102.91883 C 77.677626 -102.78167 77.304534 -102.27075 77.319442 -101.71363 z M 97.691392 -104.81065 L 98.681107 -105.86386 C 98.75219 -105.93951 98.807018 -106.02348 98.854831 -106.1107 L 124.66915 -120.35252 C 125.06632 -120.24667 125.50575 -120.33994 125.82094 -120.64332 L 126.66018 -121.45122 L 153.5141 -136.26715 L 154.08685 -72.50255 L 136.74227 -82.214172 L 141.9452 -88.941873 C 142.34825 -89.463065 142.25731 -90.216189 141.74134 -90.630878 L 139.57357 -92.373549 C 139.0576 -92.788237 138.31752 -92.702116 137.91446 -92.180924 L 132.18189 -84.767491 L 131.68836 -85.043945 L 136.44018 -100.691 C 136.63182 -101.32206 136.28003 -101.99603 135.65151 -102.2018 L 133.01065 -103.06593 C 132.38213 -103.27169 131.7221 -102.92953 131.53046 -102.29848 L 127.07515 -87.626774 L 125.82294 -88.327747 L 128.98248 -98.732256 C 129.17412 -99.363311 128.82233 -100.03728 128.19381 -100.24305 L 125.55346 -101.10718 C 124.92495 -101.31294 124.2644 -100.97078 124.07276 -100.33973 L 121.20922 -90.910576 L 98.388661 -103.68804 L 97.818553 -104.25965 L 97.691392 -104.81065 z "
       transform="matrix(0.00101291,0.99999949,-0.9999927,-0.0038197,0,0)" />
    <path
       style="fill:#ecffe8;fill-opacity:1;stroke-width:3.25699;stroke-linejoin:bevel"
       d="m 100.27953,89.147749 c -0.0401,-0.853832 0.18225,-1.718191 0.62931,-2.446732 0.44706,-0.728542 1.117,-1.318228 1.89638,-1.669218 0.52796,-0.237763 1.10481,-0.36722 1.6838,-0.374177 0.86005,-0.01033 1.71009,0.248988 2.46523,0.660767 0.75513,0.41178 1.42084,0.971999 2.0249,1.584297 2.39914,2.431873 3.8372,5.655469 6.08038,8.231902 0.22185,0.254803 0.45593,0.510233 0.58105,0.824054 0.0626,0.15691 0.0961,0.32724 0.0815,0.495528 -0.0146,0.168288 -0.0795,0.334304 -0.19479,0.457759 -0.086,0.09207 -0.1978,0.158473 -0.31774,0.197 -0.11994,0.03853 -0.24781,0.04975 -0.37341,0.04015 -0.25122,-0.0192 -0.48917,-0.119593 -0.71201,-0.23715 -0.85805,-0.452653 -1.55019,-1.167799 -2.14349,-1.93536 -0.59329,-0.76756 -1.10222,-1.597284 -1.69183,-2.367678 -1.39554,-1.823437 -3.21561,-3.280479 -4.67722,-5.051396 -0.13895,-0.168351 -0.27571,-0.340617 -0.4426,-0.481314 -0.16689,-0.140698 -0.36881,-0.249493 -0.58639,-0.267039 -0.22186,-0.01789 -0.4447,0.06154 -0.62514,0.191857 -0.18044,0.130317 -0.3216,0.308711 -0.43605,0.499608 -0.22891,0.381795 -0.35967,0.820208 -0.6226,1.179423 -0.28911,0.394985 -0.73405,0.672594 -1.21591,0.758641 -0.48186,0.08605 -0.99538,-0.02041 -1.40333,-0.290922 z"
       id="path1"
       inkscape:path-effect="#path-effect6"
       inkscape:original-d="m 100.27953,89.147749 c -0.873086,0.280633 1.68379,-2.712786 2.52569,-4.11595 0.8419,-1.403165 1.15372,-0.249452 1.6838,-0.374177 0.53009,-0.124727 2.96224,1.496708 4.49013,2.245064 1.52789,0.748355 4.05359,5.487934 6.08038,8.231902 2.0268,2.743967 0.31181,1.216075 0.46772,1.777341 0.15591,0.561266 -0.90426,0.03118 -1.40316,0 -0.49891,-0.03118 -2.58806,-2.931054 -3.83532,-4.303038 -1.24726,-1.371984 -3.11814,-3.367595 -4.67722,-5.051396 -1.55907,-1.683798 -0.68599,-0.498901 -1.02899,-0.748353 -0.34299,-0.249451 -1.12253,1.247257 -1.68379,1.870888 -0.56127,0.623628 -1.74616,0.374176 -2.61924,0.467719 z" />
    <path
       style="fill:#ecffe8;fill-opacity:1;stroke-width:3.25699;stroke-linejoin:bevel"
       d="m 134.14257,112.72092 c -0.27377,-0.0111 -0.54789,0.0474 -0.80179,0.15038 -0.2539,0.103 -0.4884,0.24973 -0.70545,0.41695 -0.4341,0.33444 -0.79886,0.74918 -1.20554,1.11647 -0.16986,0.15341 -0.34734,0.29881 -0.50712,0.4627 -0.15977,0.16389 -0.30275,0.3485 -0.3895,0.5603 -0.0868,0.21181 -0.11372,0.45356 -0.0427,0.67114 0.0355,0.10879 0.0952,0.21014 0.17633,0.29087 0.0811,0.0807 0.18385,0.14035 0.29526,0.16651 0.10044,0.0236 0.20641,0.0198 0.30664,-0.005 0.10024,-0.0245 0.19489,-0.0692 0.28113,-0.12587 0.17247,-0.11329 0.30975,-0.27172 0.44122,-0.43077 0.19161,-0.23182 0.37644,-0.47002 0.58673,-0.68504 0.21029,-0.21502 0.44851,-0.40784 0.72288,-0.53103 0.3528,-0.15841 0.74826,-0.19493 1.11158,-0.32745 0.18166,-0.0663 0.35681,-0.15804 0.49685,-0.29137 0.14005,-0.13334 0.24303,-0.31132 0.26246,-0.50371 0.0131,-0.1293 -0.012,-0.26153 -0.0666,-0.37944 -0.0546,-0.11791 -0.13837,-0.22156 -0.23886,-0.30396 -0.20099,-0.1648 -0.46383,-0.24155 -0.72353,-0.25205 z"
       id="path6"
       inkscape:path-effect="#path-effect8"
       inkscape:original-d="m 134.14257,112.72092 c -0.34299,-0.31181 -1.8397,1.15372 -2.71278,1.6838 -0.87308,0.53009 -0.28064,1.40317 -0.46772,2.15152 -0.18709,0.74835 0.68599,-0.37418 1.02899,-0.56127 0.34299,-0.18708 0.81071,-0.74835 1.30961,-1.21607 0.49891,-0.46773 1.30963,-0.81072 1.87089,-1.12253 0.56127,-0.31182 -0.68599,-0.62363 -1.02899,-0.93545 z" />
    <path
       style="fill:#ecffe8;fill-opacity:1;stroke-width:3.25699;stroke-linejoin:bevel"
       d="m 145.74207,120.67219 c -1.24858,0.11098 -2.49594,0.23572 -3.74177,0.37418 -0.35722,0.0397 -0.71685,0.0811 -1.05987,0.18835 -0.34303,0.10729 -0.67223,0.28577 -0.90456,0.56 -0.10895,0.12859 -0.19579,0.27855 -0.23493,0.44248 -0.0391,0.16392 -0.028,0.34248 0.0478,0.49297 0.0478,0.0948 0.11997,0.17646 0.20534,0.2395 0.0854,0.063 0.1837,0.10769 0.28619,0.13524 0.20498,0.0551 0.42303,0.0419 0.631,-5.7e-4 0.47686,-0.0973 0.90862,-0.34106 1.34034,-0.56573 0.43173,-0.22467 0.88646,-0.4373 1.37245,-0.46325 0.48967,-0.0262 0.97111,0.13968 1.46143,0.1461 0.24516,0.003 0.49569,-0.0355 0.71174,-0.15143 0.10802,-0.058 0.20636,-0.13497 0.28446,-0.22946 0.0781,-0.0945 0.13564,-0.20667 0.16161,-0.32648 0.0399,-0.18388 0.002,-0.3833 -0.1023,-0.53984 -0.10436,-0.15655 -0.27391,-0.26813 -0.45897,-0.30206 z"
       id="path9"
       inkscape:path-effect="#path-effect9"
       inkscape:original-d="m 145.74207,120.67219 c -0.0624,-0.40536 -2.46333,0.21827 -3.74177,0.37418 -1.27844,0.1559 -1.30962,0.4989 -1.96443,0.74835 -0.65481,0.24945 -0.15591,0.62363 -0.18709,0.93545 -0.0312,0.31181 0.81072,0.24945 1.12253,0.37417 0.31181,0.12473 1.80853,-0.71717 2.71279,-1.02898 0.90426,-0.31182 1.71498,-0.343 2.61924,-0.56127 0.90426,-0.21827 -0.31182,-0.62363 -0.56127,-0.8419 z" />
    <path
       style="fill:#ecffe8;fill-opacity:1;stroke-width:3.25699;stroke-linejoin:bevel"
       d="m 145.83562,129.5589 c -0.29353,-0.2938 -0.68779,-0.47694 -1.09674,-0.54931 -0.40896,-0.0724 -0.83217,-0.0381 -1.2353,0.0618 -0.80624,0.19971 -1.52285,0.65035 -2.25164,1.04882 -0.16038,0.0877 -0.32344,0.17409 -0.46221,0.29306 -0.13878,0.11897 -0.2533,0.27547 -0.28614,0.45529 -0.0232,0.12698 -0.004,0.26052 0.0489,0.37822 0.053,0.11771 0.13901,0.21955 0.24302,0.29599 0.20802,0.15288 0.48095,0.20018 0.73705,0.16769 0.22438,-0.0285 0.43844,-0.11379 0.63674,-0.22257 0.1983,-0.10878 0.38256,-0.24103 0.56794,-0.37061 0.18538,-0.12958 0.37326,-0.25732 0.5768,-0.35594 0.20355,-0.0986 0.42456,-0.16774 0.65067,-0.17341 0.39265,-0.01 0.76372,0.16929 1.15142,0.23217 0.19385,0.0314 0.39678,0.0329 0.58219,-0.0319 0.0927,-0.0324 0.1801,-0.0812 0.25316,-0.14681 0.0731,-0.0656 0.13152,-0.14819 0.16475,-0.24059 0.0529,-0.14701 0.0393,-0.31275 -0.0171,-0.45844 -0.0564,-0.14569 -0.15314,-0.27294 -0.26356,-0.38346 z"
       id="path10"
       inkscape:path-effect="#path-effect10"
       inkscape:original-d="m 145.83562,129.5589 c -0.0935,-0.28063 -3.05578,0.40536 -4.58368,0.56127 -1.52789,0.1559 -0.43654,0.43654 -0.74835,0.74835 -0.31182,0.31182 0.62363,0.59245 1.02899,0.8419 0.40536,0.24945 1.68379,-0.74835 2.43215,-1.12253 0.74836,-0.37418 1.37198,-0.12473 2.15152,-0.18709 0.77954,-0.0624 -0.18709,-0.56126 -0.28063,-0.8419 z"
       transform="translate(0.18708867,0.37417734)" />
    <path
       style="fill:#ecffe8;fill-opacity:1;stroke-width:3.25699;stroke-linejoin:bevel"
       d="m 156.40613,169.68942 c -1.23567,-2.22595 -2.54628,-4.4103 -3.92887,-6.5481 -1.81047,-2.79941 -3.75031,-5.52928 -5.23848,-8.51254 -0.87209,-1.74823 -1.58327,-3.5724 -2.43215,-5.33202 -1.72842,-3.58279 -4.01662,-6.87571 -5.70621,-10.47697 -0.13626,-0.29044 -0.2753,-0.59196 -0.51667,-0.80331 -0.12068,-0.10567 -0.26631,-0.1859 -0.42405,-0.21502 -0.15775,-0.0291 -0.32776,-0.004 -0.46244,0.0829 -0.11551,0.0747 -0.20055,0.19196 -0.24731,0.32134 -0.0468,0.12938 -0.0567,0.27034 -0.0409,0.407 0.0317,0.27332 0.16185,0.52394 0.28818,0.76837 1.18457,2.29197 2.22534,4.65751 3.46114,6.92228 1.14349,2.0956 2.45312,4.10345 3.46114,6.26747 0.97914,2.10203 1.66843,4.3405 2.80633,6.36101 1.02343,1.81724 2.38673,3.41703 3.55468,5.14494 1.24403,1.84048 2.26323,3.82156 3.27406,5.79975 0.16008,0.31328 0.32338,0.63141 0.56581,0.88637 0.12121,0.12748 0.26184,0.23792 0.42023,0.31446 0.15838,0.0765 0.33502,0.11838 0.51067,0.10879 0.16804,-0.009 0.33324,-0.0658 0.47152,-0.16178 0.13828,-0.0959 0.24923,-0.23079 0.31668,-0.38498 0.0675,-0.15418 0.0912,-0.3272 0.0678,-0.49386 -0.0234,-0.16666 -0.0939,-0.32645 -0.2012,-0.45609 z"
       id="path11"
       inkscape:path-effect="#path-effect11"
       inkscape:original-d="m 156.40613,169.68942 c 0.46772,-0.4989 -2.55688,-4.39658 -3.92887,-6.5481 -1.37198,-2.15152 -3.5235,-5.64384 -5.23848,-8.51254 -1.71498,-2.86869 -1.59025,-3.55468 -2.43215,-5.33202 -0.8419,-1.77735 -3.74178,-7.01583 -5.70621,-10.47697 -1.96443,-3.46114 -1.06017,-0.59245 -1.40316,-0.93544 -0.343,-0.343 0.0935,0.96662 0,1.49671 -0.0935,0.53008 2.30743,4.67721 3.46114,6.92228 1.15371,2.24506 2.33861,4.17831 3.46114,6.26747 1.12253,2.08916 1.83971,4.20949 2.80633,6.36101 0.96662,2.15152 2.27625,3.49232 3.55468,5.14494 1.27844,1.65262 2.24507,3.80414 3.27406,5.79975 1.02898,1.99561 0.9978,0.87308 1.49671,1.30962 0.4989,0.43654 0.56126,-0.99781 0.65481,-1.49671 z" />
    <path
       style="fill:#ecffe8;fill-opacity:1;stroke-width:3.25699;stroke-linejoin:bevel"
       d="m 162.86068,170.71841 c 1.88027,-0.79383 3.86893,-1.33045 5.8933,-1.59026 0.62583,-0.0803 1.25704,-0.13468 1.87089,-0.28063 0.21515,-0.0512 0.43163,-0.11392 0.65264,-0.10604 0.1105,0.004 0.22131,0.0261 0.32089,0.0742 0.0996,0.0481 0.18754,0.12304 0.24254,0.21896 0.0763,0.1331 0.0838,0.30006 0.0342,0.44524 -0.0497,0.14518 -0.15277,0.26879 -0.27801,0.35743 -0.12524,0.0886 -0.2718,0.1439 -0.4217,0.17665 -0.1499,0.0327 -0.30368,0.0437 -0.457,0.0497 -0.6175,0.024 -1.23568,-0.0313 -1.85349,-0.0173 -0.61781,0.0139 -1.24876,0.10205 -1.79474,0.39151 -0.74098,0.39284 -1.25092,1.11273 -1.93511,1.59775 -0.3421,0.24251 -0.7377,0.42737 -1.15628,0.45252 -0.2093,0.0126 -0.42205,-0.0156 -0.61725,-0.0921 -0.1952,-0.0765 -0.37231,-0.20227 -0.50086,-0.36791 -0.14406,-0.18562 -0.22429,-0.41985 -0.22429,-0.65481 0,-0.23496 0.0802,-0.46919 0.22429,-0.65481 z"
       id="path12"
       inkscape:path-effect="#path-effect12"
       inkscape:original-d="m 162.86068,170.71841 c -0.12472,-0.31182 3.83532,-0.96663 5.8933,-1.59026 2.05797,-0.62362 1.30962,-0.28063 1.87089,-0.28063 0.56126,0 0.81071,0.15591 1.21607,0.18709 0.40536,0.0312 -0.77954,0.68599 -1.12253,1.02899 -0.343,0.34299 -2.43215,0.28063 -3.64823,0.37418 -1.21608,0.0935 -2.77515,1.02898 -4.2095,1.59025 -1.43434,0.56127 -0.0624,-0.81072 0,-1.30962 z" />
    <path
       style="fill:#ecffe8;fill-opacity:1;stroke-width:3.25699;stroke-linejoin:bevel"
       d="m 166.22828,178.66968 c 0.98662,-0.63698 2.20406,-0.90752 3.3676,-0.74836 0.31802,0.0435 0.63543,0.11926 0.91976,0.26821 0.28433,0.14894 0.5349,0.37629 0.67049,0.66723 0.0843,0.18083 0.1218,0.39147 0.0609,0.58145 -0.0305,0.095 -0.0855,0.18278 -0.16165,0.24724 -0.0761,0.0644 -0.17367,0.10462 -0.2734,0.10676 -0.0805,0.002 -0.16051,-0.021 -0.23206,-0.058 -0.0716,-0.037 -0.13515,-0.088 -0.19271,-0.1444 -0.11513,-0.11275 -0.20731,-0.24729 -0.32358,-0.35886 -0.14642,-0.1405 -0.32901,-0.24148 -0.52352,-0.29929 -0.19451,-0.0578 -0.40067,-0.0731 -0.60263,-0.0533 -0.40392,0.0395 -0.78429,0.21648 -1.11892,0.44612 -0.31985,0.21949 -0.60905,0.49064 -0.96331,0.64869 -0.17713,0.079 -0.37024,0.12815 -0.56404,0.12028 -0.1938,-0.008 -0.38831,-0.0759 -0.53062,-0.20771 -0.10216,-0.0946 -0.17514,-0.22029 -0.20665,-0.35591 -0.0315,-0.13563 -0.0214,-0.28062 0.0285,-0.41057 0.05,-0.12995 0.13966,-0.24433 0.25393,-0.32388 0.11427,-0.0796 0.25267,-0.12395 0.39189,-0.12571 z"
       id="path13"
       inkscape:path-effect="#path-effect13"
       inkscape:original-d="m 166.22828,178.66968 c 0.15591,-0.28064 2.27625,-0.43654 3.3676,-0.74836 1.09135,-0.31181 1.09135,0.65481 1.59025,0.93544 0.4989,0.28064 -0.343,0.49891 -0.37418,0.93545 -0.0312,0.43654 -0.40536,-0.31181 -0.74835,-0.56127 -0.343,-0.24945 -1.55907,0.0624 -2.24507,0.0935 -0.68599,0.0312 -1.37198,0.37418 -2.05797,0.56126 -0.68599,0.18709 0.31181,-0.74835 0.46772,-1.21607 z" />
    <path
       style="fill:#ecffe8;fill-opacity:1;stroke-width:3.25699;stroke-linejoin:bevel"
       d="m 165.38638,187.55639 c 1.02672,1.80534 2.15145,3.55492 3.3676,5.23848 0.4566,0.63209 0.92855,1.25888 1.27843,1.95573 0.34988,0.69686 0.5744,1.47767 0.49891,2.25377 -0.0366,0.37632 -0.14449,0.74766 -0.33318,1.0753 -0.18869,0.32764 -0.4597,0.61041 -0.78935,0.79558 -0.48474,0.27229 -1.07633,0.32074 -1.61857,0.19786 -0.54223,-0.12289 -1.03817,-0.40694 -1.46839,-0.75912 -0.34828,-0.28511 -0.66513,-0.62675 -0.83318,-1.0443 -0.084,-0.20877 -0.1291,-0.43458 -0.11867,-0.65938 0.0104,-0.22481 0.0776,-0.44841 0.20349,-0.63493 0.20108,-0.29783 0.53022,-0.47877 0.84592,-0.65043 0.3157,-0.17166 0.64349,-0.35696 0.83788,-0.65919 0.1759,-0.27348 0.22068,-0.61566 0.18268,-0.93859 -0.038,-0.32293 -0.15275,-0.63148 -0.27618,-0.9323 -0.52595,-1.2818 -1.24023,-2.50722 -2.24506,-3.46114 -0.31144,-0.29566 -0.65549,-0.57155 -0.86769,-0.9449 -0.1061,-0.18667 -0.17647,-0.39681 -0.17987,-0.6115 -0.003,-0.21469 0.0639,-0.43383 0.20566,-0.59512 0.0935,-0.10644 0.21772,-0.18565 0.35367,-0.2256 0.13596,-0.04 0.28325,-0.0405 0.4195,-0.002 0.13625,0.0389 0.26102,0.11721 0.35535,0.22296 0.0943,0.10574 0.15792,0.2386 0.1811,0.37839 z"
       id="path14"
       inkscape:path-effect="#path-effect14"
       inkscape:original-d="m 165.38638,187.55639 c 0.18709,0 2.21389,3.46114 3.3676,5.23848 1.15371,1.77734 1.15371,2.80633 1.77734,4.2095 0.62363,1.40316 -0.81072,1.24726 -1.12253,1.87088 -0.31182,0.62363 -1.99561,-0.37417 -3.08696,-0.56126 -1.09136,-0.18709 -0.49891,-1.55908 -0.74836,-2.33861 -0.24945,-0.77954 1.09135,-0.93544 1.6838,-1.30962 0.59245,-0.37418 -0.0312,-1.1849 -0.0935,-1.87089 -0.0624,-0.68599 -1.55907,-2.33861 -2.24506,-3.46114 -0.68599,-1.12253 -0.43654,-1.24726 -0.8419,-2.15152 -0.40536,-0.90426 0.74836,0.18709 1.30962,0.37418 z" />
    <path
       style="fill:#ecffe8;fill-opacity:1;stroke-width:3.25699;stroke-linejoin:bevel"
       d="m 125.4125,155.575 c 2.02748,0.11069 4.06022,0.27899 6.08542,0.13229 0.43446,-0.0315 0.88476,-0.0754 1.29433,0.0729 0.20479,0.0742 0.39499,0.19794 0.52657,0.3715 0.13158,0.17357 0.20015,0.39924 0.16347,0.61393 -0.0347,0.20305 -0.16112,0.3845 -0.32728,0.50625 -0.16617,0.12175 -0.3694,0.18681 -0.57433,0.20771 -0.40986,0.0418 -0.81529,-0.0852 -1.21506,-0.18479 -2.88553,-0.71878 -5.90565,-0.0418 -8.86354,0.26458 -5.13819,0.53218 -10.31611,-0.0699 -15.47812,-0.26458 -2.8241,-0.10652 -5.65714,-0.0912 -8.46667,-0.39688 -2.294358,-0.24962 -4.644561,-0.70929 -6.879166,-0.13229 -0.490296,0.1266 -0.980438,0.30368 -1.486265,0.28008 -0.252914,-0.0118 -0.506928,-0.0763 -0.720062,-0.21294 -0.213134,-0.13667 -0.382339,-0.34965 -0.439506,-0.5963 -0.06252,-0.26974 0.01333,-0.56011 0.167686,-0.78998 0.154351,-0.22988 0.38115,-0.40377 0.626064,-0.53294 0.619363,-0.32665 1.351307,-0.37963 2.047181,-0.30171 0.695874,0.0779 1.371176,0.27826 2.05386,0.434 3.538365,0.80719 7.221588,0.41043 10.847918,0.26458 3.34916,-0.1347 6.70269,-0.0512 10.05417,0 3.52873,0.054 7.05944,0.0722 10.58333,0.26459 z"
       id="path15"
       inkscape:path-effect="#path-effect15"
       inkscape:original-d="m 125.4125,155.575 c 3.175,0.0882 3.88055,0.0882 6.08542,0.13229 2.20486,0.0441 1.41111,0.70556 1.98437,1.05833 0.57326,0.35278 -1.49931,0.30868 -2.11667,0.52917 -0.61736,0.22048 -5.82083,0.22048 -8.86354,0.26458 -3.04271,0.0441 -10.36285,-0.22048 -15.47812,-0.26458 -5.11528,-0.0441 -5.68854,-0.26458 -8.46667,-0.39688 -2.778125,-0.13229 -4.497916,-0.0441 -6.879166,-0.13229 -2.38125,-0.0882 -1.719792,-0.30868 -2.645833,-0.52916 -0.926042,-0.22049 0.485068,-0.92605 0.79375,-1.32292 0.308681,-0.39688 2.734026,0.0882 4.101041,0.13229 1.367015,0.0441 7.231948,0.17639 10.847918,0.26458 3.61597,0.0882 6.70278,0 10.05417,0 3.35138,0 6.87916,0.17639 10.58333,0.26459 z" />
    <path
       style="fill:#ecffe8;fill-opacity:1;stroke-width:3.25699;stroke-linejoin:bevel"
       d="m 93.357244,123.47852 c 0.756857,0.29088 1.539475,0.5176 2.338609,0.65481 0.882867,0.15159 1.800299,0.19827 2.61924,0.56127 0.23106,0.10242 0.455762,0.23267 0.621483,0.42349 0.08286,0.0954 0.149918,0.20539 0.190152,0.32518 0.04023,0.1198 0.05309,0.24957 0.03027,0.37386 -0.02289,0.12464 -0.08145,0.2419 -0.163784,0.33823 -0.08234,0.0963 -0.188004,0.17187 -0.303938,0.22303 -0.211326,0.0933 -0.453214,0.10445 -0.679487,0.058 -0.226274,-0.0464 -0.438298,-0.14787 -0.63339,-0.27154 -0.390185,-0.24735 -0.71929,-0.5843 -1.119277,-0.81546 -0.6132,-0.35437 -1.352286,-0.43417 -2.057974,-0.37418 -0.312875,0.0266 -0.623393,0.079 -0.936881,0.097 -0.313488,0.018 -0.634468,3e-4 -0.928915,-0.10878 -0.294448,-0.10909 -0.561267,-0.31851 -0.689088,-0.60532 -0.06391,-0.14341 -0.0916,-0.30379 -0.07228,-0.4596 0.01932,-0.15581 0.0866,-0.3064 0.195007,-0.41997 0.09743,-0.10206 0.225616,-0.17237 0.361523,-0.2103 0.135908,-0.0379 0.279396,-0.0444 0.419756,-0.03 0.28072,0.0289 0.545554,0.13903 0.808973,0.24027 z"
       id="path16"
       inkscape:path-effect="#path-effect16"
       inkscape:original-d="m 93.357244,123.47852 c 0.530085,0 1.621435,0.46772 2.338609,0.65481 0.717175,0.18709 1.683798,0.343 2.61924,0.56127 0.935445,0.21827 0.498904,0.77953 0.841902,1.12253 0.342995,0.34299 -0.218271,0.37418 -0.467722,0.56126 -0.249452,0.18709 -1.683798,-0.71717 -2.432154,-1.02898 -0.748355,-0.31182 -1.340802,-0.21827 -2.057974,-0.37418 -0.717174,-0.15591 -1.621435,-1.02899 -2.432153,-1.49671 -0.810718,-0.46772 1.06017,0 1.590252,0 z" />
    <path
       style="fill:#ecffe8;fill-opacity:1;stroke-width:3.25699;stroke-linejoin:bevel"
       d="m 99.998894,131.61688 c 0.667876,0.61438 1.531306,1.01289 2.432146,1.12253 0.12864,0.0157 0.26287,0.0272 0.37418,0.0935 0.0641,0.0382 0.11756,0.0935 0.15502,0.15805 0.0375,0.0645 0.0589,0.13799 0.0638,0.21242 0.01,0.14886 -0.0479,0.29857 -0.14567,0.41121 -0.0978,0.11265 -0.2334,0.18933 -0.37748,0.22801 -0.14408,0.0387 -0.29641,0.0407 -0.44404,0.0193 -0.32619,-0.0473 -0.62515,-0.20526 -0.90778,-0.37486 -0.28262,-0.16961 -0.55958,-0.35499 -0.86956,-0.46704 -0.25884,-0.0936 -0.534714,-0.13366 -0.792791,-0.22929 -0.129039,-0.0478 -0.253877,-0.10993 -0.361666,-0.19548 -0.107788,-0.0855 -0.198195,-0.19557 -0.248714,-0.32358 -0.05706,-0.14458 -0.06057,-0.3096 -0.0097,-0.45647 0.05087,-0.14687 0.155688,-0.27437 0.289944,-0.35269 0.134256,-0.0783 0.296841,-0.1068 0.449724,-0.0788 0.152883,0.028 0.294804,0.1123 0.392566,0.23313 z"
       id="path17"
       inkscape:path-effect="#path-effect17"
       inkscape:original-d="m 99.998894,131.61688 c 0.124726,0.0312 1.590256,0.87308 2.432146,1.12253 0.8419,0.24945 0.21828,0 0.37418,0.0935 0.15591,0.0935 -0.4989,0.686 -0.74835,1.02899 -0.24945,0.343 -1.21608,-0.56127 -1.77734,-0.8419 -0.561269,-0.28063 -0.77954,-0.43654 -1.403171,-0.74835 -0.623628,-0.31182 0.623631,-0.31182 1.122535,-0.65481 z" />
    <path
       style="fill:#ecffe8;fill-opacity:1;stroke-width:3.25699;stroke-linejoin:bevel"
       d="m 56.313688,135.45219 c 0.182996,-0.11018 0.377125,-0.20582 0.584836,-0.25565 0.20771,-0.0498 0.430697,-0.0517 0.631242,0.0218 0.191979,0.0704 0.352621,0.20452 0.510737,0.33418 0.158115,0.12966 0.322945,0.26006 0.518249,0.32063 0.194414,0.0603 0.40501,0.0468 0.60156,0.0997 0.09828,0.0265 0.193825,0.0707 0.266648,0.14177 0.03641,0.0356 0.06675,0.0776 0.08703,0.12426 0.02028,0.0467 0.03033,0.098 0.02698,0.1488 -0.0046,0.0689 -0.03391,0.13526 -0.07844,0.18808 -0.04453,0.0528 -0.103672,0.0924 -0.167867,0.11794 -0.128391,0.051 -0.272533,0.0459 -0.408505,0.0214 -0.4365,-0.0787 -0.8149,-0.34136 -1.169305,-0.60804 -0.110243,-0.083 -0.220816,-0.16764 -0.346018,-0.2256 -0.125202,-0.058 -0.268295,-0.0877 -0.402335,-0.055 -0.08516,0.0208 -0.162557,0.0655 -0.234629,0.11536 -0.07207,0.0499 -0.140214,0.10551 -0.214637,0.15181 -0.07442,0.0463 -0.156659,0.0835 -0.243936,0.0916 -0.04364,0.004 -0.08816,6.6e-4 -0.130093,-0.0121 -0.04193,-0.0127 -0.0812,-0.035 -0.11215,-0.066 -0.04858,-0.0487 -0.07462,-0.11757 -0.07676,-0.18633 -0.0021,-0.0688 0.01852,-0.13715 0.05282,-0.19678 0.06861,-0.11925 0.186708,-0.20074 0.304573,-0.2717 z"
       id="path18"
       inkscape:path-effect="#path-effect18"
       inkscape:original-d="m 56.313688,135.45219 c 0.09354,-0.21827 0.82631,-0.14031 1.216078,-0.23386 0.389769,-0.0935 0.670402,0.42095 1.028986,0.65481 0.358587,0.23386 0.63922,0.32741 0.982215,0.5145 0.342998,0.18709 -0.420949,0.23386 -0.654809,0.3274 -0.23386,0.0936 -0.779537,-0.40535 -1.169305,-0.60804 -0.389768,-0.20267 -0.498903,-0.18708 -0.748353,-0.28063 -0.249451,-0.0935 -0.62363,0.18709 -0.935445,0.28063 -0.311814,0.0935 0.18709,-0.43653 0.280633,-0.65481 z" />
  </g>
</svg>
