<?xml version="1.0" encoding="UTF-8" standalone="no"?>
<!-- Created with Inkscape (http://www.inkscape.org/) -->

<svg
   width="210mm"
   height="297mm"
   viewBox="0 0 210 297"
   version="1.1"
   id="svg1"
   inkscape:version="1.3.2 (091e20e, 2023-11-25, custom)"
   sodipodi:docname="wall.svg"
   xmlns:inkscape="http://www.inkscape.org/namespaces/inkscape"
   xmlns:sodipodi="http://sodipodi.sourceforge.net/DTD/sodipodi-0.dtd"
   xmlns="http://www.w3.org/2000/svg"
   xmlns:svg="http://www.w3.org/2000/svg">
  <sodipodi:namedview
     id="namedview1"
     pagecolor="#505050"
     bordercolor="#ffffff"
     borderopacity="1"
     inkscape:showpageshadow="0"
     inkscape:pageopacity="0"
     inkscape:pagecheckerboard="1"
     inkscape:deskcolor="#505050"
     inkscape:document-units="mm"
     inkscape:zoom="0.88626126"
     inkscape:cx="367.27319"
     inkscape:cy="425.38247"
     inkscape:window-width="1419"
     inkscape:window-height="1032"
     inkscape:window-x="1048"
     inkscape:window-y="0"
     inkscape:window-maximized="0"
     inkscape:current-layer="layer1" />
  <defs
     id="defs1">
    <inkscape:path-effect
       effect="spiro"
       id="path-effect27"
       is_visible="true"
       lpeversion="1" />
    <inkscape:path-effect
       effect="spiro"
       id="path-effect26"
       is_visible="true"
       lpeversion="1" />
    <inkscape:path-effect
       effect="spiro"
       id="path-effect25"
       is_visible="true"
       lpeversion="1" />
    <inkscape:path-effect
       effect="spiro"
       id="path-effect24"
       is_visible="true"
       lpeversion="1" />
    <inkscape:path-effect
       effect="spiro"
       id="path-effect23"
       is_visible="true"
       lpeversion="1" />
    <inkscape:path-effect
       effect="spiro"
       id="path-effect22"
       is_visible="true"
       lpeversion="1" />
    <inkscape:path-effect
       effect="spiro"
       id="path-effect21"
       is_visible="true"
       lpeversion="1" />
    <inkscape:path-effect
       effect="spiro"
       id="path-effect20"
       is_visible="true"
       lpeversion="1" />
    <inkscape:path-effect
       effect="spiro"
       id="path-effect19"
       is_visible="true"
       lpeversion="1" />
    <inkscape:path-effect
       effect="spiro"
       id="path-effect18"
       is_visible="true"
       lpeversion="1" />
    <inkscape:path-effect
       effect="spiro"
       id="path-effect17"
       is_visible="true"
       lpeversion="1" />
    <inkscape:path-effect
       effect="spiro"
       id="path-effect16"
       is_visible="true"
       lpeversion="1" />
    <inkscape:path-effect
       effect="spiro"
       id="path-effect15"
       is_visible="true"
       lpeversion="1" />
    <inkscape:path-effect
       effect="spiro"
       id="path-effect14"
       is_visible="true"
       lpeversion="1" />
    <inkscape:path-effect
       effect="spiro"
       id="path-effect13"
       is_visible="true"
       lpeversion="1" />
    <inkscape:path-effect
       effect="spiro"
       id="path-effect12"
       is_visible="true"
       lpeversion="1" />
    <inkscape:path-effect
       effect="spiro"
       id="path-effect11"
       is_visible="true"
       lpeversion="1" />
    <inkscape:path-effect
       effect="spiro"
       id="path-effect10"
       is_visible="true"
       lpeversion="1" />
    <inkscape:path-effect
       effect="spiro"
       id="path-effect9"
       is_visible="true"
       lpeversion="1" />
    <inkscape:path-effect
       effect="spiro"
       id="path-effect8"
       is_visible="true"
       lpeversion="1" />
    <inkscape:path-effect
       effect="fillet_chamfer"
       id="path-effect7"
       is_visible="true"
       lpeversion="1"
       nodesatellites_param="F,0,0,1,0,7.373741,0,1 @ F,0,0,1,0,8.935282,0,1 @ F,0,0,1,0,5.9868374,0,1 @ F,0,0,1,0,11.786586,0,1 @ F,0,0,1,0,15.341271,0,1 @ F,0,0,1,0,0,0,1 @ F,0,0,1,0,0,0,1 @ F,0,0,1,0,9.5788964,0,1"
       radius="0"
       unit="px"
       method="auto"
       mode="F"
       chamfer_steps="1"
       flexible="false"
       use_knot_distance="true"
       apply_no_radius="true"
       apply_with_radius="true"
       only_selected="false"
       hide_knots="false" />
    <inkscape:path-effect
       effect="fillet_chamfer"
       id="path-effect5"
       is_visible="true"
       lpeversion="1"
       nodesatellites_param="F,0,0,1,0,11.632404,0,1 @ F,0,0,1,0,13.129113,0,1 @ F,0,0,1,0,12.006581,0,1 @ F,0,0,1,0,12.754936,0,1"
       radius="0"
       unit="px"
       method="auto"
       mode="F"
       chamfer_steps="1"
       flexible="false"
       use_knot_distance="true"
       apply_no_radius="true"
       apply_with_radius="true"
       only_selected="false"
       hide_knots="false" />
    <inkscape:path-effect
       effect="fillet_chamfer"
       id="path-effect4"
       is_visible="true"
       lpeversion="1"
       nodesatellites_param="F,0,0,1,0,0,0,1 @ F,0,0,1,0,0,0,1 @ F,0,0,1,0,0,0,1 @ F,0,0,1,0,0,0,1"
       radius="0"
       unit="px"
       method="auto"
       mode="F"
       chamfer_steps="1"
       flexible="false"
       use_knot_distance="true"
       apply_no_radius="true"
       apply_with_radius="true"
       only_selected="false"
       hide_knots="false" />
    <inkscape:path-effect
       effect="fillet_chamfer"
       id="path-effect3"
       is_visible="true"
       lpeversion="1"
       nodesatellites_param="F,0,0,1,0,0,0,1 @ F,0,0,1,0,0,0,1 @ F,0,0,1,0,0,0,1 @ F,0,0,1,0,0,0,1"
       radius="0"
       unit="px"
       method="auto"
       mode="F"
       chamfer_steps="1"
       flexible="false"
       use_knot_distance="true"
       apply_no_radius="true"
       apply_with_radius="true"
       only_selected="false"
       hide_knots="false" />
    <inkscape:path-effect
       effect="fillet_chamfer"
       id="path-effect2"
       is_visible="true"
       lpeversion="1"
       nodesatellites_param="F,0,0,1,0,0,0,1 @ F,0,0,1,0,0,0,1 @ F,0,0,1,0,17.607609,0,1 @ F,0,0,1,0,16.439114,0,1"
       radius="0"
       unit="px"
       method="auto"
       mode="F"
       chamfer_steps="1"
       flexible="false"
       use_knot_distance="true"
       apply_no_radius="true"
       apply_with_radius="true"
       only_selected="false"
       hide_knots="false" />
  </defs>
  <g
     inkscape:label="Calque 1"
     inkscape:groupmode="layer"
     id="layer1">
    <path
       style="fill:#666666;fill-opacity:1;stroke-width:5.92785;stroke-linejoin:bevel"
       id="rect4"
       width="150"
       height="150"
       x="28.811649"
       y="69.971153"
       sodipodi:type="rect"
       inkscape:export-filename="basic.png"
       inkscape:export-xdpi="86.698563"
       inkscape:export-ydpi="86.698563" />
    <path
       id="path8"
       style="fill:#cccccc;stroke-width:3.25699;stroke-linejoin:bevel"
       d="M 96.136768 180.54143 C 95.735651 180.53168 95.334837 180.55307 94.935291 180.61585 C 93.541153 180.83491 92.252643 181.55436 91.227507 182.52426 C 90.20237 183.49416 89.428443 184.70583 88.837988 185.98761 C 87.657079 188.55118 87.193181 191.3802 86.277938 194.05017 C 84.831775 198.26896 82.274651 202.04629 80.904106 206.29025 C 79.616256 210.27814 79.431678 214.64788 80.590946 218.67502 C 80.716919 219.11263 80.866124 219.54349 81.023995 219.97107 L 123.55111 219.97107 C 126.62532 217.46842 129.65337 214.89113 132.84977 212.55964 C 134.36777 211.45239 135.9524 210.37534 137.09447 208.88337 C 137.66551 208.13739 138.11797 207.29072 138.34091 206.3781 C 138.56385 205.46548 138.54947 204.48472 138.2236 203.60359 C 137.77683 202.39553 136.79943 201.47213 135.83512 200.61825 C 125.5155 191.4804 112.97384 184.96976 99.711743 181.21323 C 98.544325 180.88255 97.340118 180.57071 96.136768 180.54143 z " />
    <path
       id="path9"
       style="fill:#cccccc;stroke-width:3.25699;stroke-linejoin:bevel"
       d="M 147.7052 207.14653 C 147.11485 207.14498 146.52497 207.24843 145.9854 207.48449 C 145.19336 207.83101 144.54337 208.44601 144.02532 209.13814 C 143.50727 209.83026 143.10868 210.60282 142.70137 211.36539 C 141.11546 214.33455 139.35022 217.2068 137.42934 219.97107 L 172.67008 219.97107 C 172.35821 219.63521 172.05149 219.29517 171.75334 218.95253 C 170.09431 217.0459 168.47229 215.0218 166.28597 213.75388 C 164.52297 212.73145 162.50005 212.26616 160.50441 211.8527 C 158.50878 211.43925 156.47947 211.05541 154.64327 210.17115 C 153.22829 209.48974 151.96225 208.52649 150.53913 207.86225 C 149.82757 207.53013 149.0737 207.27315 148.29379 207.18167 C 148.09881 207.1588 147.90198 207.14705 147.7052 207.14653 z " />
    <path
       id="path10"
       style="fill:#cccccc;stroke-width:3.25699;stroke-linejoin:bevel"
       d="M 171.54457 193.93235 C 170.99217 193.93941 170.43948 193.96898 169.88834 194.02175 C 165.47919 194.44386 161.17628 196.41891 158.22548 199.72218 C 157.56628 200.46013 156.96737 201.27538 156.64057 202.20936 C 156.47717 202.67636 156.384 203.16987 156.39149 203.66457 C 156.39898 204.15927 156.50877 204.65502 156.73307 205.09601 C 157.08825 205.79432 157.71427 206.32622 158.40583 206.69436 C 159.0974 207.0625 159.8573 207.28141 160.61397 207.48449 C 162.44207 207.97513 164.29332 208.38921 166.08392 209.00275 C 167.87452 209.61628 169.61824 210.44117 171.06294 211.66408 C 172.63252 212.9927 173.78569 214.73235 175.01051 216.38421 C 175.99254 217.70863 177.06986 219.01118 178.3948 219.97107 L 178.81182 219.97107 L 178.81182 195.08422 C 176.46449 194.31453 174.00501 193.9009 171.54457 193.93235 z " />
    <path
       style="fill:#cccccc;stroke-width:3.25699;stroke-linejoin:bevel"
       d="m 145.98545,198.22973 c 2.46451,0.16323 4.9715,-0.35719 7.16493,-1.49269 1.96814,-1.01887 3.65175,-2.49949 5.331,-3.94579 1.67926,-1.4463 3.40273,-2.89056 5.41639,-3.81622 1.49019,-0.68503 3.09809,-1.06654 4.6573,-1.57528 1.5592,-0.50874 3.11399,-1.1717 4.29887,-2.30572 0.84785,-0.81146 1.47186,-1.83464 1.93417,-2.91334 0.46231,-1.0787 0.76977,-2.21663 1.05121,-3.35598 6.22472,-25.1992 0.12054,-52.09834 -11.04593,-75.5303 -0.90046,-1.88954 -1.89416,-3.837909 -3.58247,-5.075162 -1.63624,-1.199094 -3.71008,-1.574919 -5.67223,-2.089769 -3.95124,-1.03677 -7.68902,-2.747641 -11.55713,-4.061014 -3.86811,-1.313373 -7.99029,-2.234684 -12.02743,-1.611224 -1.8745,0.289482 -3.69416,0.909921 -5.3737,1.791232 -4.71265,2.472887 -8.10172,6.825888 -11.34447,11.045937 -4.49452,5.84907 -9.02709,11.73846 -12.31768,18.3403 -3.290596,6.60184 -5.296356,14.04348 -4.400492,21.36535 0.419656,3.42984 1.461481,6.75495 1.990592,10.16961 0.52912,3.41467 0.50348,7.06757 -1.094975,10.13103 -0.985194,1.88813 -2.504482,3.43395 -4.007736,4.94255 -1.503255,1.50861 -3.03452,3.03874 -4.052811,4.90923 -0.276272,0.50748 -0.515051,1.04481 -0.602235,1.616 -0.08718,0.5712 -0.01082,1.18321 0.303695,1.66792 0.263294,0.40578 0.679655,0.69978 1.135547,0.86147 0.455891,0.1617 0.949781,0.19723 1.431668,0.1552 0.963775,-0.084 1.872289,-0.46672 2.806483,-0.71813 2.254263,-0.60666 4.662924,-0.44121 6.925454,0.13388 2.26253,0.57508 4.40292,1.54547 6.50879,2.55297 7.84432,3.7529 15.40328,8.08989 22.68895,12.83717 2.07732,1.35356 4.13919,2.74436 6.35445,3.85792 2.21525,1.11355 4.60582,1.94899 7.07979,2.11285 z"
       id="path11"
       inkscape:path-effect="#path-effect11"
       inkscape:original-d="m 145.98545,198.22973 c 4.47808,1.99026 4.97565,-0.99513 7.16493,-1.49269 2.18928,-0.49757 6.9659,-5.27419 10.74739,-7.76201 3.78149,-2.48782 5.97078,-2.48782 8.95617,-3.881 2.98538,-1.39319 1.99025,-4.17955 2.98538,-6.26932 0.99513,-2.08977 -7.56298,-50.35353 -11.04593,-75.5303 -3.48295,-25.176769 -2.2888,-3.383442 -3.58247,-5.075162 -1.29366,-1.691719 -3.68197,-1.393179 -5.67223,-2.089769 -1.99026,-0.696592 -15.82255,-3.582466 -23.58456,-5.672238 -7.76201,-2.089772 -3.68198,1.094642 -5.3737,1.791232 -1.69172,0.696592 -7.26444,7.46347 -11.34447,11.045937 -4.08003,3.58246 -11.24496,26.07238 -16.718172,39.70565 -5.47321,13.63327 0.69659,13.53376 0.895617,20.30064 0.199025,6.76688 -5.47321,6.76688 -8.060547,9.85178 -2.587336,3.0849 -0.199027,2.18928 -0.29854,3.28392 -0.09951,1.09464 3.781491,0 5.373698,0.29854 1.592207,0.29854 8.757134,1.99026 13.434244,2.68685 4.67711,0.69659 15.12596,8.55811 22.68895,12.83717 7.56298,4.27905 8.95616,3.98051 13.43424,5.97077 z" />
    <path
       id="path12"
       style="fill:#cccccc;stroke-width:3.25699;stroke-linejoin:bevel"
       d="M 178.81182 87.321285 C 173.68 88.239155 168.50061 88.891393 163.30063 89.263285 C 162.50953 89.319863 161.70173 89.373605 160.96795 89.67463 C 160.60107 89.825142 160.25654 90.038009 159.9799 90.322135 C 159.70325 90.606262 159.49681 90.964085 159.41973 91.35308 C 159.35294 91.690078 159.38413 92.042771 159.48691 92.370589 C 159.58968 92.698407 159.76236 93.001712 159.97266 93.273376 C 160.39326 93.816705 160.95662 94.22866 161.50952 94.636601 C 164.59013 96.909545 167.66569 99.375952 169.57001 102.69709 C 171.23443 105.59985 171.88713 108.95111 172.8525 112.15491 C 173.33518 113.75681 173.90445 115.3421 174.71388 116.80631 C 175.52332 118.27051 176.58318 119.61605 177.92919 120.60969 C 178.21348 120.81956 178.50804 121.01169 178.81182 121.18743 L 178.81182 87.321285 z " />
    <path
       style="fill:#cccccc;stroke-width:3.25699;stroke-linejoin:bevel"
       d="m 152.5533,71.947838 c -6.13932,0.822396 -12.03348,2.983777 -17.61379,5.672238 -1.61361,0.777402 -3.26512,1.649325 -4.32513,3.093098 -0.53,0.721887 -0.89341,1.58028 -0.95117,2.473975 -0.0577,0.893695 0.2073,1.820534 0.79822,2.493471 0.39767,0.452865 0.92791,0.778945 1.49607,0.979995 0.56816,0.201049 1.17402,0.281079 1.77666,0.288396 1.20527,0.01463 2.39402,-0.255535 3.59367,-0.372773 2.59021,-0.253133 5.18982,0.208168 7.76065,0.613225 2.57084,0.405057 5.20402,0.754699 7.76336,0.282392 2.33479,-0.430869 4.48499,-1.522857 6.64148,-2.516064 2.15649,-0.993207 4.41905,-1.913592 6.79277,-1.962017 1.22922,-0.02508 2.45865,0.185724 3.68482,0.09552 0.61308,-0.0451 1.22588,-0.167381 1.78525,-0.422339 0.55938,-0.254957 1.06436,-0.648475 1.39632,-1.16588 0.32006,-0.498864 0.46907,-1.098889 0.45877,-1.69151 -0.0103,-0.592621 -0.17558,-1.177443 -0.4418,-1.707 -0.53245,-1.059113 -1.44476,-1.877553 -2.40528,-2.572266 -2.56837,-1.857617 -5.61338,-3.003387 -8.73803,-3.536113 -3.12465,-0.532726 -6.33116,-0.467198 -9.47284,-0.04635 z"
       id="path13"
       inkscape:path-effect="#path-effect13"
       inkscape:original-d="m 152.5533,71.947838 c -6.07029,-1.194155 -11.94155,3.681979 -17.61379,5.672238 -5.67223,1.990257 -2.98538,5.47321 -4.47808,8.060544 -1.49269,2.587337 4.87614,0.696593 6.8664,0.895618 1.99025,0.199024 10.34934,0.497564 15.52401,0.895617 5.17467,0.39805 9.05568,-2.985389 13.43425,-4.478081 4.37856,-1.492694 4.37856,-0.99513 6.86639,-1.492694 2.48782,-0.497565 -1.59221,-3.980516 -2.38831,-5.970776 -0.79611,-1.990259 -12.14058,-2.388309 -18.21087,-3.582466 z" />
    <path
       style="fill:#cccccc;stroke-width:3.25699;stroke-linejoin:bevel"
       d="m 121.80381,80.008385 c -2.94901,1.321593 -5.63685,3.421815 -7.16493,6.269315 -0.35199,0.655909 -0.64147,1.350037 -0.79847,2.077678 -0.157,0.727642 -0.17846,1.491053 -0.002,2.214116 0.1769,0.723064 0.55913,1.403765 1.12558,1.886719 0.56646,0.482953 1.32148,0.755739 2.06277,0.687877 0.49149,-0.04499 0.96542,-0.235987 1.36609,-0.524162 0.40068,-0.288175 0.72917,-0.671387 0.97533,-1.099158 0.49233,-0.855542 0.65059,-1.867698 0.64397,-2.854761 -0.005,-0.789922 -0.10995,-1.580779 -0.0423,-2.367817 0.0338,-0.393519 0.11148,-0.785649 0.26169,-1.150939 0.15022,-0.36529 0.37519,-0.703632 0.67623,-0.959324 0.42086,-0.35747 0.9679,-0.536417 1.51433,-0.615934 0.54643,-0.07952 1.10139,-0.06762 1.65316,-0.08898 0.55177,-0.02136 1.11145,-0.07835 1.62287,-0.286594 0.25571,-0.104121 0.49737,-0.246007 0.70295,-0.430303 0.20558,-0.184296 0.37447,-0.411796 0.47747,-0.667958 0.11022,-0.274115 0.14304,-0.577669 0.10287,-0.870369 -0.0402,-0.2927 -0.15242,-0.57422 -0.31721,-0.819437 -0.32958,-0.490434 -0.86269,-0.824743 -1.43392,-0.975903 -0.57123,-0.15116 -1.17838,-0.129253 -1.75652,-0.0072 -0.57814,0.122084 -1.13116,0.341457 -1.67038,0.583106 z"
       id="path14"
       inkscape:path-effect="#path-effect14"
       inkscape:original-d="m 121.80381,80.008385 c -1.69172,-0.69659 -4.77662,4.179544 -7.16493,6.269315 -2.38831,2.089769 1.39318,4.776618 2.38831,6.86639 0.99513,2.089772 2.18929,-3.184414 2.98539,-4.478081 0.7961,-1.293667 0.49756,-2.985389 0.89561,-4.47808 0.39806,-1.492695 4.08003,-1.393183 5.97078,-2.089772 1.89074,-0.69659 -3.38344,-1.393182 -5.07516,-2.089772 z" />
    <path
       id="path15"
       style="fill:#cccccc;stroke-width:3.25699;stroke-linejoin:bevel"
       d="M 41.378353 69.970923 C 41.30601 70.329049 41.244469 70.689167 41.198519 71.051994 C 40.996707 72.64553 41.055226 74.284556 41.496692 75.828963 C 41.978958 77.516103 42.910851 79.05856 44.098083 80.350651 C 45.285316 81.642742 46.723331 82.690196 48.265271 83.527718 C 51.349151 85.202763 54.80726 86.036322 58.215051 86.874801 C 70.981509 90.015955 83.88246 93.491595 97.025085 93.144185 C 98.941015 93.09354 100.8679 92.959126 102.72448 92.483244 C 104.58106 92.007362 106.37538 91.172454 107.77223 89.860148 C 109.68375 88.064333 110.70367 85.544371 111.74822 83.138595 C 112.27049 81.935706 112.81479 80.736869 113.51193 79.626147 C 114.20908 78.515426 115.06653 77.489852 116.13141 76.724516 C 117.00986 76.093168 118.00865 75.652205 118.93538 75.094124 C 119.8621 74.536044 120.74718 73.82303 121.20656 72.843616 C 121.57021 72.068288 121.6374 71.166026 121.43807 70.333175 C 121.40846 70.209469 121.36193 70.091229 121.32128 69.970923 L 41.378353 69.970923 z " />
    <path
       id="path16"
       style="fill:#cccccc;stroke-width:3.25699;stroke-linejoin:bevel"
       d="M 28.812195 69.970923 L 28.812195 73.382084 C 29.503533 72.878045 30.263381 72.447634 30.982605 71.981136 C 31.602018 71.579377 32.202856 71.137558 32.699813 70.591557 C 32.874795 70.399306 33.029377 70.188944 33.172135 69.970923 L 28.812195 69.970923 z M 28.812195 84.20933 L 28.812195 105.40339 C 30.262381 105.15551 31.673922 104.72818 32.961812 104.02466 C 34.022132 103.44545 34.988368 102.68347 35.753373 101.74831 C 36.518379 100.81315 37.078152 99.702358 37.317102 98.518018 C 37.726257 96.490067 37.174426 94.357197 36.165751 92.55094 C 35.157076 90.744683 33.718163 89.219772 32.24196 87.770353 C 31.068539 86.618223 29.848486 85.478477 28.812195 84.20933 z " />
    <path
       style="fill:#cccccc;stroke-width:3.25699;stroke-linejoin:bevel"
       d="m 35.227572,77.022999 c 1.718614,1.181193 3.124275,2.752641 4.544665,4.279514 1.420391,1.526873 2.899209,3.04528 4.710036,4.07957 1.836711,1.049074 3.925636,1.549897 5.970776,2.089772 0.836525,0.220826 1.674429,0.451454 2.466016,0.800636 0.791587,0.349182 1.540418,0.823368 2.113563,1.471474 0.573146,0.648107 0.960688,1.481663 0.97706,2.346689 0.0082,0.432513 -0.07655,0.868116 -0.259388,1.260168 -0.182838,0.392052 -0.464758,0.739379 -0.819171,0.987423 -0.463827,0.324619 -1.035609,0.470173 -1.601316,0.492252 -0.565708,0.02208 -1.129543,-0.07276 -1.68261,-0.193712 -4.022444,-0.879703 -7.628538,-3.137963 -10.746746,-5.826961 -3.118209,-2.688998 -5.816531,-5.821768 -8.658272,-8.801439 -0.35549,-0.372745 -0.717572,-0.748865 -0.966628,-1.199735 -0.124528,-0.225434 -0.219549,-0.468673 -0.26409,-0.722335 -0.04454,-0.253661 -0.03756,-0.518133 0.03656,-0.764779 0.117653,-0.391503 0.403285,-0.722865 0.756712,-0.928305 0.353428,-0.20544 0.770158,-0.289719 1.178665,-0.274296 0.817016,0.03085 1.570365,0.440966 2.244164,0.904064 z"
       id="path17"
       inkscape:path-effect="#path-effect17"
       inkscape:original-d="m 35.227572,77.022999 c 1.791234,-0.09951 6.368827,5.771747 9.254701,8.359084 2.885874,2.587337 4.080031,1.194155 5.970776,2.089772 1.890746,0.895614 2.885873,4.577593 4.47808,6.86639 1.592207,2.288796 -2.288796,0.09951 -3.283926,0.29854 -0.99513,0.199024 -13.03619,-9.652754 -19.405018,-14.6284 -6.368827,-4.975646 -0.696589,-1.791232 -1.194154,-2.686849 -0.497565,-0.895615 2.985386,-0.199025 4.179541,-0.298537 z" />
    <path
       id="path18"
       style="fill:#cccccc;stroke-width:3.25699;stroke-linejoin:bevel"
       d="M 46.963025 98.514917 C 45.866793 98.630419 44.800669 99.083266 43.885177 99.711743 C 42.070113 100.95777 40.785304 102.85042 39.86165 104.8489 C 38.937996 106.84737 38.338248 108.97658 37.615792 111.05627 C 35.504744 117.1332 32.360187 122.7273 28.812195 128.10588 L 28.812195 219.97107 L 49.431091 219.97107 C 56.232405 216.54655 62.319787 211.65949 67.768473 206.29025 C 76.031814 198.1474 83.267994 188.38125 85.680558 177.03364 C 86.222581 174.48421 86.517983 171.87064 87.354358 169.40206 C 87.772545 168.16778 88.327338 166.97253 89.084485 165.91184 C 89.841632 164.85114 90.806979 163.92671 91.949943 163.30063 C 93.112733 162.66369 94.4315 162.3467 95.580212 161.6847 C 96.154569 161.35371 96.686949 160.93203 97.071077 160.39176 C 97.455205 159.85149 97.682354 159.18432 97.621948 158.52417 C 97.558736 157.83336 97.19119 157.20247 96.736214 156.67881 C 96.281238 156.15515 95.736733 155.71812 95.23398 155.24014 C 93.552537 153.64155 92.346708 151.5814 91.588208 149.38881 C 90.829708 147.19623 90.505224 144.87098 90.43324 142.55202 C 90.289272 137.91411 91.138452 133.30536 91.35308 128.67018 C 91.488664 125.74208 91.38982 122.70607 92.546806 120.01283 C 93.338447 118.17004 94.667082 116.61894 95.742993 114.92632 C 96.280949 114.08001 96.760356 113.18876 97.065393 112.23346 C 97.37043 111.27816 97.496379 110.25302 97.323775 109.26517 C 97.069126 107.80775 96.164939 106.50562 94.978699 105.62146 C 93.792458 104.7373 92.342386 104.24989 90.87404 104.06858 C 87.937348 103.70597 85.002076 104.51636 82.098348 105.08558 C 72.085006 107.04847 61.197037 106.01415 52.543046 100.60781 C 51.838094 100.16741 51.148935 99.698993 50.413977 99.310734 C 49.679019 98.922475 48.890456 98.61365 48.064766 98.518018 C 47.697073 98.475431 47.328436 98.476416 46.963025 98.514917 z " />
    <path
       id="path19"
       style="fill:#cccccc;stroke-width:3.25699;stroke-linejoin:bevel"
       d="M 73.701444 207.91702 C 73.562723 207.91125 73.423247 207.91263 73.284932 207.92116 C 72.178415 207.98941 71.14634 208.47777 70.156441 208.97691 C 67.343985 210.39503 64.589771 211.98662 62.234444 214.07789 C 60.372837 215.73079 58.765845 217.7207 57.725159 219.97107 L 76.328674 219.97107 C 76.290897 219.89588 76.249289 219.82237 76.212402 219.74679 C 75.825715 218.95453 75.489557 218.13281 75.294629 217.27304 C 75.099701 216.41327 75.048877 215.51188 75.231584 214.64943 C 75.425481 213.73416 75.872348 212.89416 76.162276 212.00463 C 76.30724 211.55986 76.413321 211.09872 76.424792 210.63107 C 76.436264 210.16342 76.349422 209.6872 76.127136 209.2756 C 75.86374 208.78787 75.417811 208.41002 74.910673 208.18626 C 74.53032 208.01843 74.11761 207.93435 73.701444 207.91702 z " />
    <path
       style="fill:#cccccc;stroke-width:3.25699;stroke-linejoin:bevel"
       d="m 110.1608,98.816325 c -6.22177,-1.06018 -12.505203,-1.758339 -18.807942,-2.089769 -0.996658,-0.05241 -2.009478,-0.09427 -2.979916,0.138799 -0.48522,0.116535 -0.956502,0.302498 -1.373303,0.576899 -0.4168,0.2744 -0.778123,0.639321 -1.020479,1.075534 -0.221157,0.398057 -0.340322,0.851881 -0.345898,1.307215 -0.0056,0.455337 0.102195,0.911317 0.30867,1.317187 0.41295,0.81173 1.229486,1.40053 2.127,1.55514 0.881324,0.15182 1.784408,-0.0942 2.610367,-0.43714 0.825959,-0.3429 1.612397,-0.78498 2.464791,-1.05555 1.771856,-0.56242 3.690531,-0.34493 5.520431,-0.0174 1.829899,0.32751 3.672349,0.76155 5.525499,0.61449 2.27381,-0.18044 4.46214,-1.2746 5.97078,-2.985385 z"
       id="path20"
       inkscape:path-effect="#path-effect20"
       inkscape:original-d="m 110.1608,98.816325 c 2.38831,-0.995127 -12.240089,-1.194154 -18.807942,-2.089769 -6.567852,-0.895617 -3.681978,1.094642 -5.373698,1.791232 -1.691719,0.69659 1.194155,2.686852 2.089772,4.179542 0.895615,1.49269 3.482951,-0.99513 5.075158,-1.49269 1.592207,-0.49757 7.36396,-0.0995 11.04593,0.59707 3.68198,0.69659 4.17955,-1.990255 5.97078,-2.985385 z" />
    <path
       style="fill:#cccccc;stroke-width:3.25699;stroke-linejoin:bevel"
       d="m 62.096059,93.741167 c 1.25089,-1.614394 2.899858,-2.922988 4.769701,-3.744377 1.869842,-0.82139 3.957829,-1.150547 5.986107,-0.911635 2.028278,0.238912 3.990558,1.04914 5.576179,2.336308 1.58562,1.287167 2.785978,3.050007 3.371571,5.006553 0.145875,0.487389 0.254745,0.989053 0.272017,1.497511 0.01727,0.508458 -0.0598,1.025504 -0.272017,1.487878 -0.22852,0.497887 -0.609808,0.919855 -1.065806,1.223465 -0.455998,0.30361 -0.984627,0.49115 -1.526195,0.57372 -1.083137,0.16512 -2.192095,-0.0847 -3.213572,-0.48095 -1.021477,-0.39628 -1.98008,-0.93687 -2.978904,-1.387206 -0.998824,-0.450335 -2.061467,-0.814544 -3.157071,-0.824646 -1.541059,-0.01421 -2.995057,0.666386 -4.507643,0.961597 -0.756293,0.147605 -1.544833,0.19755 -2.293548,0.01536 -0.748716,-0.182185 -1.456486,-0.616859 -1.856433,-1.275501 -0.21038,-0.346459 -0.330488,-0.744596 -0.366981,-1.148282 -0.03649,-0.403686 0.0093,-0.812821 0.11448,-1.204266 0.210382,-0.782889 0.651591,-1.484721 1.148115,-2.125533 z"
       id="path21"
       inkscape:path-effect="#path-effect21"
       inkscape:original-d="m 62.096059,93.741167 c 0.29854,-1.492694 13.135705,1.791232 19.703558,2.686849 6.567852,0.895618 -0.09951,1.99026 0,2.985389 0.09951,0.995125 -7.86152,-0.59708 -11.941548,-0.895617 -4.080031,-0.29854 -5.77175,-0.199025 -8.657624,-0.29854 -2.885877,-0.09951 0.597077,-2.985386 0.895614,-4.478081 z"
       transform="translate(-1.194155,2.38831)" />
    <path
       id="path22"
       style="fill:#e6e6e6;stroke-width:3.25699;stroke-linejoin:bevel"
       d="M 58.959192 124.24926 C 58.010213 124.27393 57.062414 124.35599 56.125256 124.49059 C 50.862667 125.24644 45.886435 127.61542 41.767476 130.97702 C 37.648518 134.33862 34.368997 138.66799 31.947404 143.40107 C 30.678063 145.88203 29.650646 148.4601 28.812195 151.1024 L 28.812195 189.39929 C 29.927641 190.73704 31.337269 191.82599 32.960262 192.442 C 34.051286 192.8561 35.228347 193.05344 36.393127 192.98202 C 37.557907 192.9106 38.709104 192.56769 39.705587 191.96038 C 40.716302 191.34438 41.551207 190.471 42.247034 189.5135 C 42.942861 188.55599 43.507972 187.51119 44.067594 186.4682 C 44.627217 185.42522 45.185064 184.3774 45.868518 183.41103 C 46.551972 182.44465 47.36892 181.55632 48.363456 180.91454 C 49.917356 179.91179 51.799943 179.57073 53.638586 179.372 C 55.47723 179.17326 57.349649 179.09098 59.110604 178.52605 C 61.141971 177.87438 62.940713 176.59533 64.372815 175.01412 C 65.804917 173.43292 66.884501 171.5566 67.71783 169.59275 C 69.384489 165.66505 70.084578 161.40443 71.350684 157.32993 C 72.577059 153.38329 74.33541 149.60973 75.4078 145.6185 C 76.480191 141.62727 76.823146 137.26067 75.231584 133.44663 C 73.77315 129.95163 70.761123 127.21773 67.27703 125.73341 C 64.663961 124.62017 61.80613 124.17525 58.959192 124.24926 z " />
    <path
       style="fill:#e6e6e6;stroke-width:3.25699;stroke-linejoin:bevel"
       d="m 135.23805,115.5345 c -3.19414,0.57555 -6.18875,2.11684 -8.60956,4.27866 -2.42081,2.16182 -4.27402,4.93006 -5.48397,7.94168 -2.41991,6.02322 -2.23574,12.86186 -0.53487,19.12622 1.23306,4.54141 3.27528,8.92628 6.41106,12.43508 3.13579,3.50881 7.42853,6.09037 12.09835,6.67141 3.09745,0.3854 6.22668,-0.10124 9.33984,-0.32694 3.11317,-0.2257 6.37179,-0.16136 9.16956,1.22255 0.93141,0.46072 1.78903,1.05763 2.70701,1.54457 0.91798,0.48694 1.92639,0.86827 2.96523,0.84374 0.86641,-0.0205 1.7177,-0.32934 2.42045,-0.83653 0.70274,-0.5072 1.25834,-1.20742 1.63057,-1.99007 0.74448,-1.56528 0.74307,-3.40887 0.29783,-5.08402 -0.44524,-1.67515 -1.30404,-3.20953 -2.23066,-4.67436 -0.92662,-1.46484 -1.93217,-2.8854 -2.71527,-4.43173 -1.38595,-2.73674 -2.03375,-5.78491 -2.4825,-8.81959 -0.44875,-3.03467 -0.7137,-6.10247 -1.3985,-9.09273 -1.23962,-5.41293 -3.9381,-10.58551 -8.13972,-14.21633 -2.10081,-1.81541 -4.55922,-3.22873 -7.21221,-4.04772 -2.65299,-0.819 -5.50012,-1.03626 -8.23264,-0.54389 z"
       id="path23"
       inkscape:path-effect="#path-effect23"
       inkscape:original-d="m 135.23805,115.5345 c -8.25957,-6.26932 -9.85177,20.99722 -14.6284,31.34656 -4.77661,10.34935 12.53863,12.73766 18.50941,19.10649 5.97077,6.36882 12.24009,0.69659 18.5094,0.89561 6.26931,0.19903 3.68198,1.39318 5.67224,2.38831 1.99026,0.99513 -0.39806,-11.5435 -0.59708,-17.01671 -0.19903,-5.47321 -2.58734,-11.74252 -3.881,-17.91232 -1.29367,-6.1698 -15.92207,-12.53863 -23.58457,-18.80794 z" />
    <path
       id="path24"
       style="fill:#e6e6e6;stroke-width:3.25699;stroke-linejoin:bevel"
       d="M 63.181156 69.970923 C 61.75295 70.354553 60.272439 70.557171 58.892529 71.088167 C 58.136788 71.37898 57.412488 71.771834 56.810486 72.313416 C 56.208484 72.854997 55.732708 73.552467 55.528394 74.336031 C 55.364774 74.963526 55.37902 75.633051 55.54493 76.259945 C 55.71084 76.886838 56.025816 77.471006 56.439449 77.970435 C 57.266716 78.969292 58.467614 79.611487 59.722453 79.939307 C 62.232131 80.594947 64.8765 80.065354 67.469784 80.008553 C 73.070173 79.885887 78.444577 81.975742 83.889453 83.292074 C 85.609801 83.707978 87.408691 84.048474 89.138745 83.674996 C 90.003772 83.488257 90.837877 83.11883 91.50966 82.542765 C 92.181443 81.9667 92.682844 81.176604 92.845496 80.306726 C 92.994306 79.510871 92.858057 78.680385 92.565409 77.925476 C 92.272761 77.170568 91.829671 76.483479 91.35308 75.828963 C 89.633125 73.466899 87.422012 71.469471 84.914197 69.970923 L 63.181156 69.970923 z " />
    <path
       style="fill:#e6e6e6;stroke-width:3.25699;stroke-linejoin:bevel"
       d="m 157.03138,77.321536 c -1.74949,-1.806121 -4.38312,-2.712157 -6.8735,-2.364661 -2.49039,0.347496 -4.7754,1.939855 -5.96366,4.155893 -0.22181,0.413666 -0.40879,0.852087 -0.48399,1.315406 -0.0752,0.463318 -0.0321,0.955544 0.18545,1.371443 0.22044,0.421344 0.61078,0.742018 1.05217,0.918952 0.44138,0.176934 0.93067,0.216269 1.40261,0.157978 0.94388,-0.116582 1.79553,-0.60352 2.62038,-1.07693 2.66588,-1.53003 5.35307,-3.022917 8.06054,-4.478081 z"
       id="path25"
       inkscape:path-effect="#path-effect25"
       inkscape:original-d="m 157.03138,77.321536 c 3.0849,-1.890744 -8.65762,0.99513 -12.83716,1.791232 -4.17954,0.796105 0.19902,1.791234 -0.29854,2.686849 -0.49757,0.895617 3.18441,0.09951 5.07516,0 1.89074,-0.09951 5.57272,-3.184411 8.06054,-4.478081 z" />
    <path
       style="fill:#e6e6e6;stroke-width:3.25699;stroke-linejoin:bevel"
       d="m 97.920711,193.75165 c -2.89519,0.61424 -5.483818,2.54569 -6.897082,5.14609 -1.413264,2.60041 -1.625842,5.82318 -0.566388,8.58669 1.053971,2.74921 3.265219,4.94147 5.796417,6.44548 2.531197,1.504 5.381612,2.38131 8.234902,3.10776 3.81723,0.97187 7.85855,1.69487 11.66507,0.68187 1.90326,-0.5065 3.71008,-1.45799 5.08145,-2.8716 1.37138,-1.4136 2.28266,-3.30575 2.35996,-5.27374 0.0524,-1.33311 -0.27379,-2.66909 -0.8618,-3.86666 -0.58802,-1.19756 -1.43242,-2.25983 -2.4116,-3.166 -1.95837,-1.81233 -4.41446,-2.98562 -6.87691,-4.01327 -5.00427,-2.08842 -10.21132,-3.69059 -15.524019,-4.77662 z"
       id="path26"
       inkscape:path-effect="#path-effect26"
       inkscape:original-d="m 97.920711,193.75165 c -4.378568,-2.38831 -4.677108,8.85665 -7.46347,13.73278 -2.786361,4.87614 9.453727,6.26931 14.031319,9.55324 4.5776,3.28393 12.73766,-4.6771 19.10648,-7.46347 6.36883,-2.78636 -6.9659,-7.46347 -10.15031,-11.04593 -3.18442,-3.58247 -9.9513,-3.58247 -15.524019,-4.77662 z" />
    <path
       id="path27"
       style="fill:#e6e6e6;stroke-width:3.25699;stroke-linejoin:bevel"
       d="M 175.47973 200.55107 C 174.05521 200.54026 172.62789 200.86073 171.36112 201.5138 C 172.80867 201.88089 174.14294 202.68379 175.14486 203.79118 C 176.14679 204.89857 176.81277 206.30623 177.03364 207.78318 C 177.18241 208.77804 177.13323 209.79321 177.2667 210.79023 C 177.33344 211.28875 177.44688 211.78425 177.64755 212.24544 C 177.84823 212.70663 178.13912 213.13386 178.52605 213.45519 C 178.61644 213.53024 178.71266 213.59716 178.81182 213.65931 L 178.81182 201.21769 C 177.7579 200.78476 176.62045 200.55972 175.47973 200.55107 z " />
  </g>
</svg>
